<svg width="28" height="29" viewBox="0 0 28 29" fill="none" xmlns="http://www.w3.org/2000/svg">
<rect opacity="0.2" x="5.85181" y="7.08997" width="21.1852" height="20.9101" rx="2.20106" fill="#28457C"/>
<rect opacity="0.7" x="4.47632" y="5.71448" width="21.1852" height="20.9101" rx="2.20106" fill="#4E7DDA"/>
<g filter="url(#filter0_d_1_60)">
<path d="M2 4.20106C2 2.98544 2.98545 2 4.20106 2H8.75317C9.34277 2 9.90772 2.23655 10.3214 2.65664L11.7064 4.06299C12.1201 4.48308 12.6851 4.71962 13.2747 4.71962H22.0847C23.3003 4.71962 24.2857 5.70507 24.2857 6.92068V22.4973C24.2857 23.713 23.3003 24.6984 22.0847 24.6984H4.20106C2.98545 24.6984 2 23.713 2 22.4973V4.20106Z" fill="url(#paint0_linear_1_60)"/>
<path d="M2.06767 4.20106C2.06767 3.02282 3.02282 2.06767 4.20106 2.06767H8.75317C9.32464 2.06767 9.87222 2.29694 10.2732 2.70412L11.6582 4.11047C12.0846 4.54347 12.6669 4.78729 13.2747 4.78729H22.0847C23.2629 4.78729 24.218 5.74244 24.218 6.92068V22.4973C24.218 23.6756 23.2629 24.6307 22.0847 24.6307H4.20106C3.02282 24.6307 2.06767 23.6756 2.06767 22.4973V4.20106Z" stroke="#FFE4CE" stroke-width="0.135335"/>
</g>
<path d="M6.06006 5.62305C6.16159 5.62305 6.2439 5.54074 6.2439 5.43921C6.2439 5.33767 6.16159 5.25536 6.06006 5.25536V5.62305ZM2 5.62305H6.06006V5.25536H2V5.62305Z" fill="#0F122C"/>
<path d="M6.06006 7.90272C6.16159 7.90272 6.2439 7.82041 6.2439 7.71887C6.2439 7.61734 6.16159 7.53503 6.06006 7.53503V7.90272ZM2 7.90272H6.06006V7.53503H2V7.90272Z" fill="#0F122C"/>
<path d="M6.06006 10.1824C6.16159 10.1824 6.2439 10.1001 6.2439 9.99854C6.2439 9.897 6.16159 9.81469 6.06006 9.81469V10.1824ZM2 10.1824H6.06006V9.81469H2V10.1824Z" fill="#0F122C"/>
<path d="M6.06006 12.462C6.16159 12.462 6.2439 12.3797 6.2439 12.2782C6.2439 12.1767 6.16159 12.0944 6.06006 12.0944V12.462ZM2 12.462H6.06006V12.0944H2V12.462Z" fill="#0F122C"/>
<path d="M6.06006 14.7417C6.16159 14.7417 6.2439 14.6594 6.2439 14.5579C6.2439 14.4563 6.16159 14.374 6.06006 14.374V14.7417ZM2 14.7417H6.06006V14.374H2V14.7417Z" fill="#0F122C"/>
<path d="M6.06006 17.0214C6.16159 17.0214 6.2439 16.9391 6.2439 16.8375C6.2439 16.736 6.16159 16.6537 6.06006 16.6537V17.0214ZM2 17.0214H6.06006V16.6537H2V17.0214Z" fill="#0F122C"/>
<path d="M6.06006 19.301C6.16159 19.301 6.2439 19.2187 6.2439 19.1172C6.2439 19.0157 6.16159 18.9333 6.06006 18.9333V19.301ZM2 19.301H6.06006V18.9333H2V19.301Z" fill="#0F122C"/>
<path d="M6.06006 21.5807C6.16159 21.5807 6.2439 21.4984 6.2439 21.3969C6.2439 21.2953 6.16159 21.213 6.06006 21.213V21.5807ZM2 21.5807H6.06006V21.213H2V21.5807Z" fill="#0F122C"/>
<defs>
<filter id="filter0_d_1_60" x="0.266667" y="0.266667" width="27.4031" height="27.8158" filterUnits="userSpaceOnUse" color-interpolation-filters="sRGB">
<feFlood flood-opacity="0" result="BackgroundImageFix"/>
<feColorMatrix in="SourceAlpha" type="matrix" values="0 0 0 0 0 0 0 0 0 0 0 0 0 0 0 0 0 0 127 0" result="hardAlpha"/>
<feOffset dx="0.825397" dy="0.825397"/>
<feGaussianBlur stdDeviation="1.27937"/>
<feComposite in2="hardAlpha" operator="out"/>
<feColorMatrix type="matrix" values="0 0 0 0 0.265513 0 0 0 0 0.167677 0 0 0 0 0.075861 0 0 0 0.22 0"/>
<feBlend mode="normal" in2="BackgroundImageFix" result="effect1_dropShadow_1_60"/>
<feBlend mode="normal" in="SourceGraphic" in2="effect1_dropShadow_1_60" result="shape"/>
</filter>
<linearGradient id="paint0_linear_1_60" x1="2" y1="2.5282" x2="24.2857" y2="24.1702" gradientUnits="userSpaceOnUse">
<stop stop-color="#6F73F6"/>
<stop offset="1" stop-color="#F7DFFF"/>
</linearGradient>
</defs>
</svg>
